<svg width="31" height="36" viewBox="0 0 31 36" fill="#1f1410e6" xmlns="http://www.w3.org/2000/svg">
<path d="M30.375 1.89589C30.3748 1.69142 30.3265 1.48982 30.2339 1.30715C30.1413 1.12448 30.0069 0.965791 29.8415 0.843739C29.6761 0.721687 29.4842 0.639645 29.2812 0.604154C29.0781 0.568663 28.8696 0.580704 28.672 0.639317L11.025 5.88962C10.7523 5.97054 10.5132 6.13649 10.3431 6.36284C10.173 6.5892 10.0811 6.8639 10.0809 7.14619V24.4319C8.93609 23.6415 7.55522 23.2586 6.16307 23.3457C4.77091 23.4327 3.44947 23.9846 2.41386 24.9113C1.37825 25.8381 0.689475 27.0852 0.459657 28.4497C0.229839 29.8142 0.472517 31.2156 1.14818 32.4259C1.82385 33.6361 2.89271 34.5839 4.18076 35.1149C5.46881 35.646 6.90018 35.729 8.24186 35.3504C9.58353 34.9719 10.7565 34.1541 11.5698 33.0302C12.3831 31.9063 12.7888 30.5424 12.7209 29.1607C12.7257 29.1148 12.728 29.0686 12.7279 29.0224V15.1231L27.7279 10.6604V20.9335C26.5831 20.143 25.2023 19.7602 23.8101 19.8472C22.418 19.9343 21.0965 20.4861 20.0609 21.4129C19.0253 22.3397 18.3365 23.5868 18.1067 24.9513C17.8769 26.3157 18.1196 27.7172 18.7952 28.9274C19.4709 30.1377 20.5398 31.0855 21.8278 31.6165C23.1159 32.1475 24.5472 32.2305 25.8889 31.852C27.2306 31.4734 28.4035 30.6556 29.2168 29.5317C30.0301 28.4078 30.4358 27.044 30.3679 25.6622C30.3727 25.6157 30.3751 25.569 30.375 25.5222V1.89589Z"/>
</svg>
