<svg width="35" height="35" viewBox="0 0 35 35" fill="none" xmlns="http://www.w3.org/2000/svg">
<path d="M2.13604 0.613598C2.03609 0.513648 1.91744 0.434365 1.78685 0.380273C1.65626 0.326181 1.51629 0.29834 1.37494 0.29834C1.23359 0.29834 1.09363 0.326181 0.963037 0.380273C0.832448 0.434365 0.713791 0.513648 0.613842 0.613598C0.513893 0.713547 0.434609 0.832204 0.380517 0.962793C0.326425 1.09338 0.298584 1.23335 0.298584 1.3747C0.298584 1.51605 0.326425 1.65601 0.380517 1.7866C0.434609 1.91719 0.513893 2.03585 0.613842 2.1358L11.0499 12.5697V25.0247C10.0813 24.2982 8.8957 23.92 7.68529 23.9515C6.47487 23.983 5.31054 24.4222 4.38092 25.198C3.45131 25.9739 2.81089 27.0408 2.56341 28.2261C2.31593 29.4114 2.4759 30.6455 3.0174 31.7285C3.55889 32.8115 4.45019 33.6799 5.54689 34.1931C6.64359 34.7062 7.88143 34.8341 9.05986 34.5559C10.2383 34.2777 11.2883 33.6098 12.0397 32.6603C12.7911 31.7109 13.1999 30.5355 13.1999 29.3247V14.7197L20.54 22.0598C19.8549 23.0935 19.5483 24.3323 19.6722 25.5662C19.796 26.8 20.3427 27.9531 21.2196 28.83C22.0965 29.7069 23.2496 30.2536 24.4835 30.3775C25.7174 30.5013 26.9561 30.1947 27.9898 29.5096L32.8638 34.3858C33.0657 34.5877 33.3395 34.7011 33.6249 34.7011C33.9104 34.7011 34.1842 34.5877 34.386 34.3858C34.5879 34.1839 34.7013 33.9102 34.7013 33.6247C34.7013 33.3392 34.5879 33.0655 34.386 32.8636L2.13604 0.613598ZM26.416 27.9358C25.8142 28.2232 25.1381 28.317 24.4808 28.2042C23.8235 28.0914 23.2173 27.7777 22.7457 27.3061C22.2741 26.8345 21.9604 26.2283 21.8476 25.571C21.7348 24.9137 21.8286 24.2376 22.116 23.6358L26.416 27.9358ZM7.82494 26.0997C8.68026 26.0997 9.50056 26.4395 10.1054 27.0443C10.7102 27.6491 11.0499 28.4694 11.0499 29.3247C11.0499 30.18 10.7102 31.0003 10.1054 31.6051C9.50056 32.2099 8.68026 32.5497 7.82494 32.5497C6.96962 32.5497 6.14933 32.2099 5.54452 31.6051C4.93972 31.0003 4.59994 30.18 4.59994 29.3247C4.59994 28.4694 4.93972 27.6491 5.54452 27.0443C6.14933 26.4395 6.96962 26.0997 7.82494 26.0997ZM25.0249 19.6497C24.7669 19.6497 24.5132 19.6669 24.2638 19.7034L30.3483 25.7858C30.3806 25.5364 30.3999 25.2827 30.3999 25.0247V2.8367C30.3997 2.49961 30.3203 2.16729 30.168 1.86656C30.0157 1.56584 29.7948 1.30513 29.5232 1.1055C29.2516 0.90587 28.9369 0.772901 28.6044 0.71733C28.2719 0.66176 27.931 0.685145 27.6092 0.785598L12.5592 5.48765C12.2666 5.57881 11.9969 5.73148 11.7681 5.93543C11.5393 6.13937 11.3567 6.38988 11.2327 6.67015L13.1999 8.6417V7.54305L28.2499 2.83885V7.03565L15.5606 11.0002L17.2763 12.7159L28.2499 9.2867V20.7247C27.3203 20.0255 26.1882 19.6481 25.0249 19.6497Z" fill="#1F1410"/>
</svg>
